<?xml version="1.0" standalone="no"?>
<!DOCTYPE svg PUBLIC "-//W3C//DTD SVG 20010904//EN"
 "http://www.w3.org/TR/2001/REC-SVG-20010904/DTD/svg10.dtd">
<svg version="1.0" xmlns="http://www.w3.org/2000/svg"
 width="512.000000pt" height="512.000000pt" viewBox="0 0 512.000000 512.000000"
 preserveAspectRatio="xMidYMid meet">
<metadata>
Created by potrace 1.11, written by Peter Selinger 2001-2013
</metadata>
<g transform="translate(0.000000,512.000000) scale(0.100000,-0.100000)"
fill="#000000" stroke="none">
<path d="M224 4942 c-102 -36 -180 -124 -209 -238 -13 -54 -15 -296 -13 -2180
l3 -2119 26 -56 c33 -71 87 -125 158 -158 l56 -26 2315 0 2315 0 56 26 c71 33
125 87 158 158 l26 56 3 2119 c2 2339 6 2186 -60 2289 -17 27 -51 64 -76 83
-91 69 95 64 -2426 64 -2152 -1 -2284 -2 -2332 -18z m1376 -1422 l0 -480 -640
0 -640 0 0 480 0 480 640 0 640 0 0 -480z m1600 0 l0 -480 -640 0 -640 0 0
480 0 480 640 0 640 0 0 -480z m1600 0 l0 -480 -640 0 -640 0 0 480 0 480 640
0 640 0 0 -480z m-3200 -1295 l0 -495 -640 0 -640 0 0 495 0 495 640 0 640 0
0 -495z m1600 0 l0 -495 -640 0 -640 0 0 495 0 495 640 0 640 0 0 -495z m1600
0 l0 -495 -640 0 -640 0 0 495 0 495 640 0 640 0 0 -495z m-3200 -1265 l0
-480 -640 0 -640 0 0 480 0 480 640 0 640 0 0 -480z m1600 0 l0 -480 -640 0
-640 0 0 480 0 480 640 0 640 0 0 -480z m1600 0 l0 -480 -640 0 -640 0 0 480
0 480 640 0 640 0 0 -480z"/>
</g>
</svg>
